<svg xmlns="http://www.w3.org/2000/svg" viewBox="0 0 800 600" width="800" height="600" role="img" aria-label="Detecting undervalued homes in London">
  <defs>
    <linearGradient id="bg" x1="0" y1="0" x2="0" y2="1">
      <stop offset="0" stop-color="#252a36"/>
      <stop offset="1" stop-color="#121419"/>
    </linearGradient>
    <linearGradient id="gb" x1="0" y1="0" x2="1" y2="0">
      <stop offset="0" stop-color="#17A589"/>
      <stop offset="1" stop-color="#2E86C1"/>
    </linearGradient>
    <linearGradient id="house" x1="0" y1="0" x2="0" y2="1">
      <stop offset="0" stop-color="#1ec8a5"/>
      <stop offset="1" stop-color="#148f9e"/>
    </linearGradient>
    <linearGradient id="skylineFade" x1="0" y1="0" x2="0" y2="1">
      <stop offset="0" stop-color="#1a2030" stop-opacity="0.85"/>
      <stop offset="1" stop-color="#1a2030" stop-opacity="0"/>
    </linearGradient>
    <radialGradient id="glowT" cx="0.5" cy="0.5" r="0.5">
      <stop offset="0" stop-color="#17A589" stop-opacity="0.30"/>
      <stop offset="1" stop-color="#17A589" stop-opacity="0"/>
    </radialGradient>
    <radialGradient id="glowB" cx="0.5" cy="0.5" r="0.5">
      <stop offset="0" stop-color="#2E86C1" stop-opacity="0.20"/>
      <stop offset="1" stop-color="#2E86C1" stop-opacity="0"/>
    </radialGradient>
  </defs>

  <rect width="800" height="600" fill="url(#bg)"/>

  <!-- faint grid: shared backdrop style -->
  <g stroke="#eef2f7" stroke-opacity="0.035" stroke-width="1">
    <path d="M0 80H800M0 160H800M0 240H800M0 320H800M0 400H800M0 480H800"/>
    <path d="M80 0V600M160 0V600M240 0V600M320 0V600M400 0V600M480 0V600M560 0V600M640 0V600M720 0V600"/>
  </g>

  <!-- atmosphere -->
  <ellipse cx="170" cy="150" rx="260" ry="190" fill="url(#glowT)"/>
  <ellipse cx="640" cy="140" rx="280" ry="200" fill="url(#glowB)"/>

  <!-- distant London skyline -->
  <g fill="#1a2030" opacity="0.85">
    <rect x="0" y="352" width="800" height="60"/>
    <rect x="34" y="308" width="20" height="48"/>
    <polygon points="34,308 44,284 54,308"/>
    <rect x="96" y="330" width="40" height="26"/>
    <path d="M 172 354 C 167 310 174 282 188 274 C 202 282 209 310 204 354 Z"/>
    <rect x="238" y="322" width="34" height="34"/>
    <polygon points="304,354 330,246 356,354"/>
    <rect x="396" y="332" width="42" height="24"/>
    <rect x="586" y="318" width="30" height="38"/>
    <rect x="700" y="332" width="44" height="24"/>
    <rect x="756" y="316" width="24" height="40"/>
  </g>
  <!-- skyline shadow bleeds downward and fades back into the background -->
  <rect x="0" y="412" width="800" height="188" fill="url(#skylineFade)"/>

  <!-- residuals: each sale hangs off the fair-price line -->
  <g stroke="#e7e7e7" stroke-width="2" stroke-dasharray="4 5" opacity="0.45">
    <line x1="110" y1="336" x2="110" y2="362"/>
    <line x1="190" y1="368" x2="190" y2="343"/>
    <line x1="300" y1="286" x2="300" y2="316"/>
    <line x1="400" y1="315" x2="400" y2="291"/>
    <line x1="500" y1="238" x2="500" y2="266"/>
    <line x1="600" y1="268" x2="600" y2="242"/>
    <line x1="700" y1="190" x2="700" y2="217"/>
  </g>

  <!-- the fair-price line: centred, up-trending -->
  <path d="M 70 372 C 290 322 520 264 730 210" fill="none" stroke="url(#gb)" stroke-width="5" stroke-linecap="round"/>

  <!-- the market: seven sales scattered around the line -->
  <g fill="#e7e7e7">
    <circle cx="110" cy="336" r="9" opacity="0.9"/>
    <circle cx="190" cy="368" r="9" opacity="0.8"/>
    <circle cx="300" cy="286" r="9" opacity="0.9"/>
    <circle cx="400" cy="315" r="9" opacity="0.75"/>
    <circle cx="500" cy="238" r="9" opacity="0.9"/>
    <circle cx="600" cy="268" r="9" opacity="0.8"/>
    <circle cx="700" cy="190" r="9" opacity="0.9"/>
  </g>

  <!-- one sale sits far below the line: undervalued, and under the glass -->
  <line x1="240" y1="330" x2="240" y2="406" stroke="#1ABC9C" stroke-width="2.5" stroke-dasharray="6 6"/>

  <!-- magnifier hero: the glass found the house -->
  <g transform="translate(240,462)">
    <circle r="52" fill="#17A589" opacity="0.08"/>
    <circle r="52" fill="none" stroke="#ffffff" stroke-width="9"/>
    <circle r="43" fill="none" stroke="#eef2f7" stroke-width="2" opacity="0.3"/>
    <path d="M -34 -14 A 38 38 0 0 1 -16 -34" fill="none" stroke="#eef2f7" stroke-width="4" stroke-linecap="round" opacity="0.55"/>
    <!-- collar where the handle meets the rim, then the handle running up -->
    <line x1="38" y1="-38" x2="51" y2="-51" stroke="#ffffff" stroke-width="15"/>
    <line x1="50" y1="-50" x2="92" y2="-92" stroke="#2E86C1" stroke-width="12" stroke-linecap="round"/>
    <!-- the one home, inside the lens -->
    <rect x="-26" y="-4" width="52" height="30" fill="url(#house)"/>
    <polygon points="-26,-4 0,-26 26,-4" fill="#25dcb8"/>
    <rect x="-18" y="4" width="10" height="9" rx="1.5" fill="#eafcf7"/>
    <rect x="8" y="4" width="10" height="9" rx="1.5" fill="#eafcf7"/>
    <rect x="-6" y="10" width="12" height="16" rx="2" fill="#0b2f33"/>
  </g>
</svg>
